:SAMPLES-PER-SECOND 30
:FULLY-SPECIFIED
:DEGREES
450
root  -3.65461 41.0227 -0.604415 176.752 -81.3681 -175.181
RightUpLeg  2.95004 -0.424092 0.698157
RightLeg  -5.97532 -15.7743 2.99497
RightFoot  1.91058 -0.0503483 0.545314
RightToes  -3.10678e-008 1.75238e-005 3.56266e-009
Spine  5.34199 -2.4921 2.19116
Spine1  -9.21504 -2.30114 -1.96617
HEad  -2.65481 6.18097 4.47616
LeftShoulder1  1.30475 -1.6357 -18.8498
LeftArm  -1.06478 5.49993 -58.4571
LeftForeArm  78.9268 -79.3289 -59.2031
LeftHand  -0.572209 -5.85888 6.22411
RightShoulder  1.1063 1.65572 14.6536
RightArm  -8.52325 33.1075 52.5141
RightForeArm  44.4703 75.1496 41.62
RightHand  -0.298968 8.58093 -2.86136
LeftUpLeg  4.56537 1.63234 3.17202
LeftLeg  -5.90999 25.5701 -2.47071
LeftFoot  1.44122 0.395293 -3.607
LeftToes  4.7643e-008 1.47522e-008 1.32869e-009
451
root  -3.65902 41.0227 -0.654805 177.856 -82.6842 -176.419
RightUpLeg  3.04238 -0.645707 0.512785
RightLeg  -5.63964 -16.8166 2.97839
RightFoot  1.52045 -0.0405979 0.452161
RightToes  -3.10678e-008 1.75238e-005 3.56266e-009
Spine  5.54957 -2.40061 2.72423
Spine1  -9.61776 -2.11947 -2.78892
HEad  -2.62818 5.44683 4.36515
LeftShoulder1  1.37954 -1.86381 -19.1755
LeftArm  2.46086 5.67235 -61.0909
LeftForeArm  74.3964 -78.6756 -53.4055
LeftHand  -0.607237 -5.94893 6.53832
RightShoulder  1.21265 2.16406 14.6001
RightArm  -5.30749 35.5425 54.7404
RightForeArm  43.7759 75.0255 41.2653
RightHand  -0.387937 8.53302 -3.60991
LeftUpLeg  4.69459 1.51092 3.03298
LeftLeg  -6.25039 24.417 -2.56595
LeftFoot  1.68415 0.3898 -3.50352
LeftToes  4.7643e-008 1.47522e-008 1.32869e-009
452
root  -3.66956 41.0225 -0.723597 178.717 -84.1937 -177.301
RightUpLeg  3.25786 -0.742887 0.467118
RightLeg  -5.76716 -18.1478 3.10681
RightFoot  1.32722 -0.0305054 0.356134
RightToes  -3.10678e-008 1.75238e-005 3.56266e-009
Spine  5.39664 -2.40434 3.36335
Spine1  -9.61212 -2.0344 -3.66694
HEad  -2.82481 5.17336 4.12619
LeftShoulder1  1.45912 -2.0806 -19.6408
LeftArm  5.29504 6.18075 -62.8929
LeftForeArm  72.8601 -78.4175 -51.5957
LeftHand  -0.57024 -5.88244 6.19507
RightShoulder  1.25243 2.40854 14.3593
RightArm  -2.09956 37.7858 57.3555
RightForeArm  43.255 74.8742 40.7496
RightHand  -0.338044 8.54738 -3.19262
LeftUpLeg  4.61155 1.40799 3.01209
LeftLeg  -6.40287 23.0538 -2.50191
LeftFoot  1.90489 0.41559 -3.67887
LeftToes  4.7643e-008 1.47522e-008 1.32869e-009
453
root  -3.66807 41.0216 -0.795722 179.716 -85.5072 -178.441
RightUpLeg  3.46994 -0.75296 0.503813
RightLeg  -5.68444 -19.4077 3.08258
RightFoot  1.10084 -0.0264164 0.321923
RightToes  -3.10678e-008 1.75238e-005 3.56266e-009
Spine  5.42095 -2.28234 4.34581
Spine1  -9.59526 -1.7667 -5.05885
HEad  -3.38001 4.98481 4.04295
LeftShoulder1  1.48037 -2.15629 -19.667
LeftArm  8.01032 6.64419 -63.933
LeftForeArm  72.4644 -78.3167 -50.8369
LeftHand  -0.605203 -5.80039 6.59732
RightShoulder  1.25463 2.38062 14.5122
RightArm  0.971953 39.7723 59.9693
RightForeArm  42.9547 74.5034 39.2502
RightHand  -0.352879 8.5291 -3.31027
LeftUpLeg  4.55981 1.33013 2.99789
LeftLeg  -6.31854 21.8528 -2.33236
LeftFoot  1.97904 0.430919 -3.79328
LeftToes  4.7643e-008 1.47522e-008 1.32869e-009
454
root  -3.70529 41.0176 -0.872684 -178.573 -86.717 179.532
RightUpLeg  3.90665 -0.809139 0.533783
RightLeg  -5.54279 -20.4767 3.04064
RightFoot  0.792976 -0.0249796 0.321857
RightToes  -3.10678e-008 1.75238e-005 3.56266e-009
Spine  5.35567 -1.92021 5.02799
Spine1  -9.37489 -1.31511 -5.87256
HEad  -3.42861 4.51051 3.87668
LeftShoulder1  1.49927 -2.19958 -19.8103
LeftArm  10.6352 6.61431 -64.2788
LeftForeArm  71.7436 -78.1448 -49.6373
LeftHand  -0.595563 -6.07497 6.35223
RightShoulder  1.19196 2.17349 14.1548
RightArm  3.34803 41.126 62.3649
RightForeArm  41.9928 74.2742 38.613
RightHand  -0.54082 8.6173 -4.8574
LeftUpLeg  4.79226 1.34744 3.02886
LeftLeg  -6.28199 20.6408 -2.21976
LeftFoot  2.02187 0.433453 -3.80463
LeftToes  4.7643e-008 1.47522e-008 1.32869e-009
455
root  -3.71624 41.0086 -0.953207 -173.159 -87.8771 174.067
RightUpLeg  3.88417 -1.07519 0.366278
RightLeg  -5.14443 -21.3332 3.07248
RightFoot  0.398347 -0.0129578 0.151192
RightToes  -3.10678e-008 1.75238e-005 3.56266e-009
Spine  5.34618 -1.55494 5.26348
Spine1  -9.5307 -0.92012 -6.19762
HEad  -3.26698 4.41781 3.15624
LeftShoulder1  1.4962 -2.20903 -19.7068
LeftArm  12.3509 6.61979 -64.5123
LeftForeArm  71.307 -78.0482 -49.0177
LeftHand  -0.541582 -5.82862 5.92624
RightShoulder  1.15308 2.08037 13.7749
RightArm  4.59429 41.9475 63.898
RightForeArm  41.438 74.091 38.0651
RightHand  -0.439517 8.81471 -3.9692
LeftUpLeg  4.64784 1.22346 2.91856
LeftLeg  -6.14999 19.6221 -2.07148
LeftFoot  2.06492 0.447956 -3.91776
LeftToes  4.7643e-008 1.47522e-008 1.32869e-009
456
root  -3.74068 40.9953 -1.02723 -147.661 -88.9345 148.442
RightUpLeg  4.08632 -1.24538 0.356164
RightLeg  -5.06339 -22.3742 3.20384
RightFoot  0.0840598 -0.00483073 0.0354593
RightToes  -3.10678e-008 1.75238e-005 3.56266e-009
Spine  5.19516 -1.30729 5.43443
Spine1  -9.34329 -0.655646 -6.31484
HEad  -3.45299 4.29211 2.61015
LeftShoulder1  1.43374 -1.97718 -19.6669
LeftArm  13.1395 6.73231 -64.3809
LeftForeArm  72.0805 -78.1909 -49.8805
LeftHand  -0.570068 -5.8146 6.22543
RightShoulder  1.18338 2.22003 13.7969
RightArm  4.69476 42.3138 64.3565
RightForeArm  40.8285 73.9405 37.6711
RightHand  -0.315284 8.90512 -2.94329
LeftUpLeg  4.54374 1.18124 2.92933
LeftLeg  -5.87106 18.5529 -1.84917
LeftFoot  1.96785 0.452739 -3.98564
LeftToes  4.7643e-008 1.47522e-008 1.32869e-009
